# xmcd
#
# Track frame offsets: 
#        150
#        16855
#        36095
#        50580
#        65307
#        82872
#        104157
#        120665
#        141757
#        163442
#        174225
#        191547
#        209547
#
# Disc length: 3051 seconds
#
# Revision: 0
# Processed by: cddbd v1.5.1PL2 Copyright (c) Steve Scherf et al.
# Submitted via: ExactAudioCopy v0.95b4
#
DISCID=b30be90d
DTITLE=Reatta - Reatta
DYEAR=1998
DGENRE=Country
TTITLE0=You Dont Have to Live With it (I Do)
TTITLE1=A Month of Blue Mondays
TTITLE2=She's My Baby
TTITLE3=Nights are Forever Without You
TTITLE4=Youre Not There
TTITLE5=It's Not Over til You Cry
TTITLE6=Buffalo Bill
TTITLE7=What's Going Without Saying
TTITLE8=Here's Looking at You
TTITLE9=Never Met a Rock
TTITLE10=Heartache and a Half
TTITLE11=Finally Time
TTITLE12=The Land
EXTD=
EXTT0=
EXTT1=
EXTT2=
EXTT3=
EXTT4=
EXTT5=
EXTT6=
EXTT7=
EXTT8=
EXTT9=
EXTT10=
EXTT11=
EXTT12=
PLAYORDER=
